<?xml version="1.0" encoding="UTF-8" standalone="no"?>
<svg
   xmlns:dc="http://purl.org/dc/elements/1.1/"
   xmlns:cc="http://creativecommons.org/ns#"
   xmlns:rdf="http://www.w3.org/1999/02/22-rdf-syntax-ns#"
   xmlns:svg="http://www.w3.org/2000/svg"
   xmlns="http://www.w3.org/2000/svg"
   xmlns:sodipodi="http://sodipodi.sourceforge.net/DTD/sodipodi-0.dtd"
   xmlns:inkscape="http://www.inkscape.org/namespaces/inkscape"
   width="82"
   height="82"
   viewBox="0 0 82 82"
   fill="none"
   version="1.1"
   id="svg4"
   sodipodi:docname="logo2.svg"
   inkscape:version="1.0.2-2 (e86c870879, 2021-01-15)">
  <metadata
     id="metadata10">
    <rdf:RDF>
      <cc:Work
         rdf:about="">
        <dc:format>image/svg+xml</dc:format>
        <dc:type
           rdf:resource="http://purl.org/dc/dcmitype/StillImage" />
        <dc:title></dc:title>
      </cc:Work>
    </rdf:RDF>
  </metadata>
  <defs
     id="defs8" />
  <sodipodi:namedview
     pagecolor="#ffffff"
     bordercolor="#666666"
     borderopacity="1"
     objecttolerance="10"
     gridtolerance="10"
     guidetolerance="10"
     inkscape:pageopacity="0"
     inkscape:pageshadow="2"
     inkscape:window-width="958"
     inkscape:window-height="1041"
     id="namedview6"
     showgrid="false"
     showguides="true"
     inkscape:guide-bbox="true"
     inkscape:zoom="1.8971158"
     inkscape:cx="6.5635422"
     inkscape:cy="115.54609"
     inkscape:window-x="952"
     inkscape:window-y="0"
     inkscape:window-maximized="0"
     inkscape:current-layer="svg4" />
  <rect
     width="82"
     height="82"
     rx="41"
     fill="#FEC803"
     id="rect2" />
  <path
     d="m 50.929989,41.843694 c 2.7336,0 5.2849,0 7.9282,0 -0.3695,1.697 -0.7151,3.2854 -1.064,4.8737 -0.1205,0.5483 -0.2965,1.0905 -0.3583,1.645 -0.0603,0.5391 -0.333,0.6555 -0.8388,0.6509 -2.166,-0.0184 -4.3336,0.0215 -6.498,-0.0214 -0.6469,-0.0123 -0.8546,0.2267 -0.9783,0.7872 -0.7595,3.4355 -1.5508,6.8649 -2.3309,10.2973 -0.027,0.121 -0.0603,0.242 -0.111,0.4365 -0.2648,0 -0.5233,0 -0.7801,0 -7.6618,-0.0092 -15.322,-0.0122 -22.98384,-0.0321 -1.42548,-0.0046 -2.85097,-0.0812 -4.276459,-0.1256 -0.390067,-0.0123 -0.769034,-0.0368 -0.680239,-0.5836 0.367868,-2.2607 0.730979,-4.5214 1.109948,-6.8679 1.55551,0 3.02857,0.0077 4.50162,-0.0015 5.38957,-0.0337 10.77757,-0.0873 16.16717,-0.0935 0.7024,-0.0015 0.9434,-0.2129 1.0798,-0.8669 0.6517,-3.1184 1.37,-6.223 2.0534,-9.3354 0.9561,-4.3575 1.9139,-8.715 2.8383,-13.08023 0.1284,-0.60959 0.3488,-0.81637 1.0243,-0.81177 5.4689,0.03216 10.9377,0.01838 16.4066,0.01838 0.2822,0 0.5661,0 0.9149,0 -0.5026,2.30053 -0.9942,4.51072 -1.4651,6.72542 -0.111,0.5254 -0.5074,0.4274 -0.861,0.4274 -2.8526,0.0046 -5.7067,0.026 -8.5593,-0.0138 -0.7262,-0.0107 -1.0306,0.2251 -1.1591,0.8945 -0.3203,1.6404 -0.6945,3.2746 -1.0798,5.0774 z"
     fill="#ffffff"
     id="path2" />
  <path
     d="m 34.667789,28.833944 c 2.5529,0 5.0471,0 7.646,0 -0.0746,0.5223 -0.1126,0.96954 -0.2046,1.40452 -1.0639,5.03913 -2.139,10.07523 -3.2061,15.11273 -0.2966,1.3969 -0.5915,2.7938 -0.8626,4.1952 -0.0936,0.481 -0.3124,0.6877 -0.8436,0.6847 -2.0344,-0.0107 -4.0687,0.0138 -6.1031,0.0337 -0.5534,0.0046 -0.8356,-0.1363 -0.704,-0.7659 1.4271,-6.8372 2.8351,-13.6791 4.278,-20.66495 z"
     fill="#ffffff"
     id="path4" />
  <path
     d="m 30.801789,35.001794 c -0.2949,1.4106 -0.5677,2.7248 -0.8451,4.0374 -0.7374,3.4876 -1.4905,6.972 -2.20408,10.4627 -0.10941,0.533 -0.32823,0.7306 -0.88003,0.7306 -2.08511,-0.0046 -4.17022,0.0076 -6.25375,0.0444 -0.6961,0.0122 -0.8943,-0.2788 -0.76269,-0.8914 0.38531,-1.7921 0.74683,-3.5871 1.15117,-5.3746 0.62316,-2.7569 1.28278,-5.5063 1.90276,-8.2647 0.12527,-0.5576 0.35994,-0.7766 0.9942,-0.7613 2.00425,0.0475 4.01166,0.0184 6.01752,0.0184 0.2568,-0.0015 0.5153,-0.0015 0.88,-0.0015 z"
     fill="#ffffff"
     id="path6" />
  <path
     d="m 46.601189,26.986704 c 0.3663,-1.94366 0.704,-3.73875 1.0497,-5.56601 2.6813,0 5.3103,0 7.9662,0 -0.3219,1.74761 -0.6326,3.47531 -0.9735,5.19688 -0.0286,0.14244 -0.2569,0.35228 -0.3949,0.35228 -2.5021,0.02297 -5.0058,0.01685 -7.6475,0.01685 z"
     fill="#ffffff"
     id="path8" />
</svg>
