<?xml version="1.0" encoding="UTF-8" standalone="no"?>
<svg
   xmlns:dc="http://purl.org/dc/elements/1.1/"
   xmlns:cc="http://creativecommons.org/ns#"
   xmlns:rdf="http://www.w3.org/1999/02/22-rdf-syntax-ns#"
   xmlns:svg="http://www.w3.org/2000/svg"
   xmlns="http://www.w3.org/2000/svg"
   xmlns:sodipodi="http://sodipodi.sourceforge.net/DTD/sodipodi-0.dtd"
   xmlns:inkscape="http://www.inkscape.org/namespaces/inkscape"
   width="24"
   height="24"
   viewBox="0 0 24 24"
   fill="none"
   version="1.1"
   id="svg4"
   sodipodi:docname="logo.svg"
   inkscape:version="1.0.2-2 (e86c870879, 2021-01-15)">
  <metadata
     id="metadata10">
    <rdf:RDF>
      <cc:Work
         rdf:about="">
        <dc:format>image/svg+xml</dc:format>
        <dc:type
           rdf:resource="http://purl.org/dc/dcmitype/StillImage" />
        <dc:title></dc:title>
      </cc:Work>
    </rdf:RDF>
  </metadata>
  <defs
     id="defs8" />
  <sodipodi:namedview
     pagecolor="#ffffff"
     bordercolor="#666666"
     borderopacity="1"
     objecttolerance="10"
     gridtolerance="10"
     guidetolerance="10"
     inkscape:pageopacity="0"
     inkscape:pageshadow="2"
     inkscape:window-width="1198"
     inkscape:window-height="1311"
     id="namedview6"
     showgrid="false"
     showguides="true"
     inkscape:guide-bbox="true"
     inkscape:zoom="16"
     inkscape:cx="8.8145155"
     inkscape:cy="12.342876"
     inkscape:window-x="2392"
     inkscape:window-y="0"
     inkscape:window-maximized="0"
     inkscape:current-layer="svg4">
    <sodipodi:guide
       position="11.972727,18.736364"
       orientation="1,0"
       id="guide12" />
    <sodipodi:guide
       position="8.0727273,12.054545"
       orientation="0,-1"
       id="guide14" />
  </sodipodi:namedview>
  <circle
     cx="12"
     cy="12"
     r="12"
     fill="#373737"
     id="circle2" />
  <path
     d="m 15.0787,12.235489 c 0.8561,0 1.6551,0 2.4829,0 -0.1157,0.55426 -0.2239,1.07301 -0.3332,1.59176 -0.0377,0.17909 -0.0928,0.35617 -0.1122,0.53726 -0.0189,0.17608 -0.1043,0.2141 -0.2627,0.2126 -0.6783,-0.006 -1.3572,0.007 -2.035,-0.007 -0.20263,-0.004 -0.26768,0.07403 -0.30641,0.25712 -0.23787,1.12204 -0.48567,2.24204 -0.72999,3.36314 -0.0084,0.0395 -0.01887,0.079 -0.03476,0.1425 -0.08294,0 -0.16388,0 -0.24433,0 -2.39952,-0.003 -4.79855,-0.004 -7.19808,-0.0105 -0.44643,-0.0015 -0.892867,-0.0265 -1.339302,-0.041 -0.122161,-0.004 -0.2408461,-0.012 -0.2130371,-0.1906 0.1152091,-0.7383 0.2289281,-1.4767 0.3476131,-2.2431 0.487156,0 0.948486,0.0026 1.409816,-5e-4 1.68792,-0.011 3.37533,-0.0285 5.06324,-0.0305 0.21999,-5e-4 0.29547,-0.0695 0.33818,-0.2831 0.2041,-1.01849 0.42905,-2.03248 0.64309,-3.04896 0.29944,-1.42319 0.59938,-2.8463703 0.88889,-4.2720503 0.04023,-0.1991 0.10925,-0.26663 0.3208,-0.26513 1.71278,0.01051 3.42548,0.006 5.13818,0.006 0.0884,0 0.1773,0 0.2866,0 -0.1574,0.75136 -0.3114,1.47321 -0.4589,2.1965603 -0.0347,0.17158 -0.1589,0.13956 -0.2696,0.13956 -0.8934,0.0015 -1.7873,0.0085 -2.6806,-0.0045 -0.2275,-0.0035 -0.3228,0.07354 -0.363,0.29214 -0.1003,0.53576 -0.2175,1.06951 -0.3382,1.6583 z"
     fill="#fec803"
     id="path2" />
  <path
     d="m 9.98565,7.9864687 c 0.79951,0 1.58064,0 2.39455,0 -0.02334,0.17058 -0.03525,0.31665 -0.06406,0.45872 -0.33321,1.6457903 -0.6699,3.2905803 -1.0041,4.9358703 -0.09286,0.45622 -0.18523,0.91243 -0.27015,1.37015 -0.02929,0.15708 -0.09782,0.22461 -0.26418,0.22361 -0.63713,-0.0035 -1.27425,0.0045 -1.91138,0.01101 -0.17331,0.0015 -0.2617,-0.04452 -0.22048,-0.25012 0.44693,-2.23307 0.8879,-4.46765 1.3398,-6.7492403 z"
     fill="#fec803"
     id="path4" />
  <path
     d="m 8.77502,10.000999 c -0.09237,0.46072 -0.17778,0.88993 -0.26468,1.31864 -0.23092,1.13904 -0.4668,2.27709 -0.69026,3.41713 -0.03427,0.17409 -0.1028,0.23862 -0.27561,0.23862 -0.65302,-0.0015 -1.30603,0.0025 -1.958555,0.0145 -0.218003,0.004 -0.280077,-0.09104 -0.23886,-0.29113 0.120672,-0.58529 0.233894,-1.17157 0.360525,-1.75535 0.19516,-0.90043 0.40174,-1.79836 0.59591,-2.69929 0.03923,-0.18209 0.11272,-0.2536203 0.31136,-0.2486203 0.62769,0.01551 1.25638,0.006 1.88456,0.006 0.08045,-5e-4 0.16139,-5e-4 0.27561,-5e-4 z"
     fill="#fec803"
     id="path6" />
  <path
     d="m 13.72305,7.3834387 c 0.11471,-0.6348 0.22048,-1.221084 0.32874,-1.81787 0.83971,0 1.66311,0 2.49491,0 -0.1008,0.570774 -0.1982,1.13504 -0.3049,1.69731 -0.009,0.04653 -0.0805,0.11506 -0.1237,0.11506 -0.7836,0.0075 -1.56773,0.0055 -2.39505,0.0055 z"
     fill="#fec803"
     id="path8" />
</svg>
