<svg width="75" height="75" viewBox="0 0 75 75" fill="none" xmlns="http://www.w3.org/2000/svg">
<path d="M37.5 75C58.2107 75 75 58.2107 75 37.5C75 16.7893 58.2107 0 37.5 0C16.7893 0 0 16.7893 0 37.5C0 58.2107 16.7893 75 37.5 75Z" fill="#F7C414"/>
<path d="M24.1995 30.2339C17.8571 30.1723 11.5147 30.2339 5.1108 30.2339C4.18716 30.2339 3.94085 30.6034 4.00243 31.4039C4.12558 33.8053 5.91129 35.7758 8.31277 36.4531H21.7364V37.2536H10.5295C10.5295 37.3152 10.5911 37.3768 10.5911 37.4999C11.2069 40.2709 12.7463 41.995 15.2709 42.7955H21.6748V43.596H17.1182C17.1182 43.596 17.1182 43.6576 17.1798 43.6576C17.9803 46.5516 20.2586 48.2758 23.3374 48.3989C28.7561 48.6452 33.1896 44.7659 33.3744 39.5319C33.6822 34.729 29.4335 30.2955 24.1995 30.2339Z" fill="#373737"/>
<path d="M69.9507 30.2339C63.6083 30.2339 57.266 30.1723 50.862 30.2339C45.5665 30.2955 41.2561 34.6674 41.564 39.5319C41.8719 44.8275 46.2438 48.6452 51.6009 48.3989C54.7413 48.2758 56.9581 46.5516 57.7586 43.6576C57.7586 43.6576 57.7586 43.596 57.8202 43.596H53.2635V42.7955H59.729C62.2537 41.995 63.7315 40.2709 64.4088 37.4999C64.4088 37.4383 64.4704 37.3768 64.4704 37.2536H53.3251V36.4531H66.7487C69.2118 35.7758 70.9975 33.6822 71.0591 31.4039C71.1206 30.6034 70.8128 30.2339 69.9507 30.2339Z" fill="#373737"/>
</svg>
